<mxfile host="app.diagrams.net" modified="2024-04-18T07:14:56.931Z" agent="Mozilla/5.0 (Windows NT 10.0; Win64; x64) AppleWebKit/537.36 (KHTML, like Gecko) Chrome/123.0.0.0 Safari/537.36" etag="KB5FSpBMQFYfb0Mgt-Ct" version="24.2.5" type="device">
  <diagram id="25SDcEQw-UH-9h4caNCp" name="Page-1">
    <mxGraphModel dx="880" dy="460" grid="0" gridSize="10" guides="1" tooltips="1" connect="1" arrows="1" fold="1" page="0" pageScale="1" pageWidth="850" pageHeight="1100" background="none" math="0" shadow="0">
      <root>
        <mxCell id="0" />
        <mxCell id="1" parent="0" />
        <mxCell id="lEX6nHBeAUjkaPzAe-QE-6" value="VPC" style="points=[[0,0],[0.25,0],[0.5,0],[0.75,0],[1,0],[1,0.25],[1,0.5],[1,0.75],[1,1],[0.75,1],[0.5,1],[0.25,1],[0,1],[0,0.75],[0,0.5],[0,0.25]];outlineConnect=0;gradientColor=none;html=1;whiteSpace=wrap;fontSize=12;fontStyle=0;container=1;pointerEvents=0;collapsible=0;recursiveResize=0;shape=mxgraph.aws4.group;grIcon=mxgraph.aws4.group_vpc;strokeColor=#248814;fillColor=none;verticalAlign=top;align=left;spacingLeft=30;fontColor=#AAB7B8;dashed=0;" parent="1" vertex="1">
          <mxGeometry x="80" y="190" width="730" height="650" as="geometry" />
        </mxCell>
        <mxCell id="lEX6nHBeAUjkaPzAe-QE-8" value="10.1.0.0/16" style="text;html=1;strokeColor=none;fillColor=none;align=center;verticalAlign=middle;whiteSpace=wrap;rounded=0;" parent="lEX6nHBeAUjkaPzAe-QE-6" vertex="1">
          <mxGeometry y="30" width="60" height="10" as="geometry" />
        </mxCell>
        <mxCell id="lEX6nHBeAUjkaPzAe-QE-9" value="Availability Zone" style="fillColor=none;strokeColor=#147EBA;dashed=1;verticalAlign=top;fontStyle=0;fontColor=#147EBA;" parent="lEX6nHBeAUjkaPzAe-QE-6" vertex="1">
          <mxGeometry x="40" y="40" width="240" height="520" as="geometry" />
        </mxCell>
        <mxCell id="lEX6nHBeAUjkaPzAe-QE-12" value="eu-west-2a" style="text;html=1;strokeColor=none;fillColor=none;align=center;verticalAlign=middle;whiteSpace=wrap;rounded=0;" parent="lEX6nHBeAUjkaPzAe-QE-6" vertex="1">
          <mxGeometry x="120" y="60" width="70" height="20" as="geometry" />
        </mxCell>
        <mxCell id="lEX6nHBeAUjkaPzAe-QE-23" value="Private subnet" style="points=[[0,0],[0.25,0],[0.5,0],[0.75,0],[1,0],[1,0.25],[1,0.5],[1,0.75],[1,1],[0.75,1],[0.5,1],[0.25,1],[0,1],[0,0.75],[0,0.5],[0,0.25]];outlineConnect=0;gradientColor=none;html=1;whiteSpace=wrap;fontSize=12;fontStyle=0;container=1;pointerEvents=0;collapsible=0;recursiveResize=0;shape=mxgraph.aws4.group;grIcon=mxgraph.aws4.group_security_group;grStroke=0;strokeColor=#147EBA;fillColor=#E6F2F8;verticalAlign=top;align=left;spacingLeft=30;fontColor=#147EBA;dashed=0;" parent="lEX6nHBeAUjkaPzAe-QE-6" vertex="1">
          <mxGeometry x="80" y="250" width="170" height="120" as="geometry" />
        </mxCell>
        <mxCell id="lEX6nHBeAUjkaPzAe-QE-24" value="10.1.2.0/24" style="text;html=1;strokeColor=none;fillColor=none;align=center;verticalAlign=middle;whiteSpace=wrap;rounded=0;" parent="lEX6nHBeAUjkaPzAe-QE-23" vertex="1">
          <mxGeometry x="34" y="22" width="70" height="10" as="geometry" />
        </mxCell>
        <mxCell id="lEX6nHBeAUjkaPzAe-QE-37" value="webservers" style="text;html=1;strokeColor=none;fillColor=none;align=center;verticalAlign=middle;whiteSpace=wrap;rounded=0;" parent="lEX6nHBeAUjkaPzAe-QE-23" vertex="1">
          <mxGeometry x="50" y="85" width="60" height="30" as="geometry" />
        </mxCell>
        <mxCell id="lEX6nHBeAUjkaPzAe-QE-36" value="" style="sketch=0;points=[[0,0,0],[0.25,0,0],[0.5,0,0],[0.75,0,0],[1,0,0],[0,1,0],[0.25,1,0],[0.5,1,0],[0.75,1,0],[1,1,0],[0,0.25,0],[0,0.5,0],[0,0.75,0],[1,0.25,0],[1,0.5,0],[1,0.75,0]];outlineConnect=0;fontColor=#232F3E;gradientColor=#F78E04;gradientDirection=north;fillColor=#D05C17;strokeColor=#ffffff;dashed=0;verticalLabelPosition=bottom;verticalAlign=top;align=center;html=1;fontSize=12;fontStyle=0;aspect=fixed;shape=mxgraph.aws4.resourceIcon;resIcon=mxgraph.aws4.ec2;" parent="lEX6nHBeAUjkaPzAe-QE-23" vertex="1">
          <mxGeometry x="60" y="50" width="40" height="40" as="geometry" />
        </mxCell>
        <mxCell id="lEX6nHBeAUjkaPzAe-QE-46" value="&lt;font color=&quot;#9999ff&quot;&gt;1&lt;/font&gt;" style="text;html=1;strokeColor=none;fillColor=none;align=center;verticalAlign=middle;whiteSpace=wrap;rounded=0;" parent="lEX6nHBeAUjkaPzAe-QE-23" vertex="1">
          <mxGeometry x="96" y="5" width="45" height="15" as="geometry" />
        </mxCell>
        <mxCell id="lEX6nHBeAUjkaPzAe-QE-27" value="Private subnet" style="points=[[0,0],[0.25,0],[0.5,0],[0.75,0],[1,0],[1,0.25],[1,0.5],[1,0.75],[1,1],[0.75,1],[0.5,1],[0.25,1],[0,1],[0,0.75],[0,0.5],[0,0.25]];outlineConnect=0;gradientColor=none;html=1;whiteSpace=wrap;fontSize=12;fontStyle=0;container=1;pointerEvents=0;collapsible=0;recursiveResize=0;shape=mxgraph.aws4.group;grIcon=mxgraph.aws4.group_security_group;grStroke=0;strokeColor=#147EBA;fillColor=#E6F2F8;verticalAlign=top;align=left;spacingLeft=30;fontColor=#147EBA;dashed=0;" parent="lEX6nHBeAUjkaPzAe-QE-6" vertex="1">
          <mxGeometry x="80" y="400" width="170" height="130" as="geometry" />
        </mxCell>
        <mxCell id="lEX6nHBeAUjkaPzAe-QE-28" value="10.1.4.0/24" style="text;html=1;strokeColor=none;fillColor=none;align=center;verticalAlign=middle;whiteSpace=wrap;rounded=0;" parent="lEX6nHBeAUjkaPzAe-QE-27" vertex="1">
          <mxGeometry x="33" y="21" width="70" height="10" as="geometry" />
        </mxCell>
        <mxCell id="lEX6nHBeAUjkaPzAe-QE-39" value="" style="sketch=0;points=[[0,0,0],[0.25,0,0],[0.5,0,0],[0.75,0,0],[1,0,0],[0,1,0],[0.25,1,0],[0.5,1,0],[0.75,1,0],[1,1,0],[0,0.25,0],[0,0.5,0],[0,0.75,0],[1,0.25,0],[1,0.5,0],[1,0.75,0]];outlineConnect=0;fontColor=#232F3E;gradientColor=#4D72F3;gradientDirection=north;fillColor=#3334B9;strokeColor=#ffffff;dashed=0;verticalLabelPosition=bottom;verticalAlign=top;align=center;html=1;fontSize=12;fontStyle=0;aspect=fixed;shape=mxgraph.aws4.resourceIcon;resIcon=mxgraph.aws4.rds;" parent="lEX6nHBeAUjkaPzAe-QE-27" vertex="1">
          <mxGeometry y="40" width="40" height="40" as="geometry" />
        </mxCell>
        <mxCell id="lEX6nHBeAUjkaPzAe-QE-42" value="" style="sketch=0;points=[[0,0,0],[0.25,0,0],[0.5,0,0],[0.75,0,0],[1,0,0],[0,1,0],[0.25,1,0],[0.5,1,0],[0.75,1,0],[1,1,0],[0,0.25,0],[0,0.5,0],[0,0.75,0],[1,0.25,0],[1,0.5,0],[1,0.75,0]];outlineConnect=0;fontColor=#232F3E;gradientColor=#60A337;gradientDirection=north;fillColor=#277116;strokeColor=#ffffff;dashed=0;verticalLabelPosition=bottom;verticalAlign=top;align=center;html=1;fontSize=12;fontStyle=0;aspect=fixed;shape=mxgraph.aws4.resourceIcon;resIcon=mxgraph.aws4.elastic_file_system;" parent="lEX6nHBeAUjkaPzAe-QE-27" vertex="1">
          <mxGeometry x="130" y="40" width="40" height="40" as="geometry" />
        </mxCell>
        <mxCell id="lEX6nHBeAUjkaPzAe-QE-43" value="efs" style="text;html=1;strokeColor=none;fillColor=none;align=center;verticalAlign=middle;whiteSpace=wrap;rounded=0;" parent="lEX6nHBeAUjkaPzAe-QE-6" vertex="1">
          <mxGeometry x="200" y="480" width="60" height="30" as="geometry" />
        </mxCell>
        <mxCell id="lEX6nHBeAUjkaPzAe-QE-44" value="rds" style="text;html=1;strokeColor=none;fillColor=none;align=center;verticalAlign=middle;whiteSpace=wrap;rounded=0;" parent="lEX6nHBeAUjkaPzAe-QE-6" vertex="1">
          <mxGeometry x="60" y="480" width="60" height="30" as="geometry" />
        </mxCell>
        <mxCell id="lEX6nHBeAUjkaPzAe-QE-47" value="&lt;font color=&quot;#9999ff&quot;&gt;3&lt;/font&gt;" style="text;html=1;strokeColor=none;fillColor=none;align=center;verticalAlign=middle;whiteSpace=wrap;rounded=0;" parent="lEX6nHBeAUjkaPzAe-QE-6" vertex="1">
          <mxGeometry x="175" y="406" width="45" height="15" as="geometry" />
        </mxCell>
        <mxCell id="lEX6nHBeAUjkaPzAe-QE-48" value="&lt;font color=&quot;#187a18&quot;&gt;1&lt;/font&gt;" style="text;html=1;strokeColor=none;fillColor=none;align=center;verticalAlign=middle;whiteSpace=wrap;rounded=0;fontColor=#9999FF;" parent="lEX6nHBeAUjkaPzAe-QE-6" vertex="1">
          <mxGeometry x="186" y="85" width="19" height="16" as="geometry" />
        </mxCell>
        <mxCell id="lEX6nHBeAUjkaPzAe-QE-75" value="Availability Zone" style="fillColor=none;strokeColor=#147EBA;dashed=1;verticalAlign=top;fontStyle=0;fontColor=#147EBA;" parent="lEX6nHBeAUjkaPzAe-QE-6" vertex="1">
          <mxGeometry x="400" y="40" width="240" height="520" as="geometry" />
        </mxCell>
        <mxCell id="lEX6nHBeAUjkaPzAe-QE-76" value="eu-west-2a" style="text;html=1;strokeColor=none;fillColor=none;align=center;verticalAlign=middle;whiteSpace=wrap;rounded=0;" parent="lEX6nHBeAUjkaPzAe-QE-6" vertex="1">
          <mxGeometry x="480" y="60" width="70" height="20" as="geometry" />
        </mxCell>
        <mxCell id="lEX6nHBeAUjkaPzAe-QE-77" value="Public subnet" style="points=[[0,0],[0.25,0],[0.5,0],[0.75,0],[1,0],[1,0.25],[1,0.5],[1,0.75],[1,1],[0.75,1],[0.5,1],[0.25,1],[0,1],[0,0.75],[0,0.5],[0,0.25]];outlineConnect=0;gradientColor=none;html=1;whiteSpace=wrap;fontSize=12;fontStyle=0;container=1;pointerEvents=0;collapsible=0;recursiveResize=0;shape=mxgraph.aws4.group;grIcon=mxgraph.aws4.group_security_group;grStroke=0;strokeColor=#248814;fillColor=#E9F3E6;verticalAlign=top;align=left;spacingLeft=30;fontColor=#248814;dashed=0;" parent="lEX6nHBeAUjkaPzAe-QE-6" vertex="1">
          <mxGeometry x="440" y="80" width="175" height="120" as="geometry" />
        </mxCell>
        <mxCell id="lEX6nHBeAUjkaPzAe-QE-78" value="10.1.1.0/24" style="text;html=1;strokeColor=none;fillColor=none;align=center;verticalAlign=middle;whiteSpace=wrap;rounded=0;" parent="lEX6nHBeAUjkaPzAe-QE-77" vertex="1">
          <mxGeometry x="35" y="20" width="70" height="10" as="geometry" />
        </mxCell>
        <mxCell id="lEX6nHBeAUjkaPzAe-QE-79" value="" style="outlineConnect=0;dashed=0;verticalLabelPosition=bottom;verticalAlign=top;align=center;html=1;shape=mxgraph.aws3.instance;fillColor=#F58534;gradientColor=none;" parent="lEX6nHBeAUjkaPzAe-QE-77" vertex="1">
          <mxGeometry y="40" width="40" height="40" as="geometry" />
        </mxCell>
        <mxCell id="lEX6nHBeAUjkaPzAe-QE-81" value="" style="outlineConnect=0;dashed=0;verticalLabelPosition=bottom;verticalAlign=top;align=center;html=1;shape=mxgraph.aws3.instance;fillColor=#F58534;gradientColor=none;" parent="lEX6nHBeAUjkaPzAe-QE-77" vertex="1">
          <mxGeometry x="60" y="40" width="40" height="40" as="geometry" />
        </mxCell>
        <mxCell id="lEX6nHBeAUjkaPzAe-QE-82" value="nginx" style="text;html=1;strokeColor=none;fillColor=none;align=center;verticalAlign=middle;whiteSpace=wrap;rounded=0;" parent="lEX6nHBeAUjkaPzAe-QE-77" vertex="1">
          <mxGeometry x="-5" y="80" width="50" height="10" as="geometry" />
        </mxCell>
        <mxCell id="lEX6nHBeAUjkaPzAe-QE-83" value="bastion" style="text;html=1;strokeColor=none;fillColor=none;align=center;verticalAlign=middle;whiteSpace=wrap;rounded=0;" parent="lEX6nHBeAUjkaPzAe-QE-77" vertex="1">
          <mxGeometry x="55" y="80" width="50" height="10" as="geometry" />
        </mxCell>
        <mxCell id="lEX6nHBeAUjkaPzAe-QE-85" style="edgeStyle=orthogonalEdgeStyle;rounded=0;orthogonalLoop=1;jettySize=auto;html=1;exitX=0.5;exitY=1;exitDx=0;exitDy=0;entryX=0.5;entryY=0;entryDx=0;entryDy=0;" parent="lEX6nHBeAUjkaPzAe-QE-77" source="lEX6nHBeAUjkaPzAe-QE-78" target="lEX6nHBeAUjkaPzAe-QE-78" edge="1">
          <mxGeometry relative="1" as="geometry" />
        </mxCell>
        <mxCell id="lEX6nHBeAUjkaPzAe-QE-80" value="" style="sketch=0;outlineConnect=0;fontColor=#232F3E;gradientColor=none;fillColor=#4D27AA;strokeColor=none;dashed=0;verticalLabelPosition=bottom;verticalAlign=top;align=center;html=1;fontSize=12;fontStyle=0;aspect=fixed;pointerEvents=1;shape=mxgraph.aws4.nat_gateway;" parent="lEX6nHBeAUjkaPzAe-QE-77" vertex="1">
          <mxGeometry x="130" y="40" width="40" height="40" as="geometry" />
        </mxCell>
        <mxCell id="lEX6nHBeAUjkaPzAe-QE-84" value="nat gateway" style="text;html=1;strokeColor=none;fillColor=none;align=center;verticalAlign=middle;whiteSpace=wrap;rounded=0;" parent="lEX6nHBeAUjkaPzAe-QE-77" vertex="1">
          <mxGeometry x="125" y="90" width="50" height="10" as="geometry" />
        </mxCell>
        <mxCell id="lEX6nHBeAUjkaPzAe-QE-86" value="Private subnet" style="points=[[0,0],[0.25,0],[0.5,0],[0.75,0],[1,0],[1,0.25],[1,0.5],[1,0.75],[1,1],[0.75,1],[0.5,1],[0.25,1],[0,1],[0,0.75],[0,0.5],[0,0.25]];outlineConnect=0;gradientColor=none;html=1;whiteSpace=wrap;fontSize=12;fontStyle=0;container=1;pointerEvents=0;collapsible=0;recursiveResize=0;shape=mxgraph.aws4.group;grIcon=mxgraph.aws4.group_security_group;grStroke=0;strokeColor=#147EBA;fillColor=#E6F2F8;verticalAlign=top;align=left;spacingLeft=30;fontColor=#147EBA;dashed=0;" parent="lEX6nHBeAUjkaPzAe-QE-6" vertex="1">
          <mxGeometry x="440" y="250" width="170" height="120" as="geometry" />
        </mxCell>
        <mxCell id="lEX6nHBeAUjkaPzAe-QE-87" value="10.1.3.0/24" style="text;html=1;strokeColor=none;fillColor=none;align=center;verticalAlign=middle;whiteSpace=wrap;rounded=0;" parent="lEX6nHBeAUjkaPzAe-QE-86" vertex="1">
          <mxGeometry x="34" y="22" width="70" height="10" as="geometry" />
        </mxCell>
        <mxCell id="lEX6nHBeAUjkaPzAe-QE-88" value="webservers" style="text;html=1;strokeColor=none;fillColor=none;align=center;verticalAlign=middle;whiteSpace=wrap;rounded=0;" parent="lEX6nHBeAUjkaPzAe-QE-86" vertex="1">
          <mxGeometry x="50" y="85" width="60" height="30" as="geometry" />
        </mxCell>
        <mxCell id="lEX6nHBeAUjkaPzAe-QE-89" value="" style="sketch=0;points=[[0,0,0],[0.25,0,0],[0.5,0,0],[0.75,0,0],[1,0,0],[0,1,0],[0.25,1,0],[0.5,1,0],[0.75,1,0],[1,1,0],[0,0.25,0],[0,0.5,0],[0,0.75,0],[1,0.25,0],[1,0.5,0],[1,0.75,0]];outlineConnect=0;fontColor=#232F3E;gradientColor=#F78E04;gradientDirection=north;fillColor=#D05C17;strokeColor=#ffffff;dashed=0;verticalLabelPosition=bottom;verticalAlign=top;align=center;html=1;fontSize=12;fontStyle=0;aspect=fixed;shape=mxgraph.aws4.resourceIcon;resIcon=mxgraph.aws4.ec2;" parent="lEX6nHBeAUjkaPzAe-QE-86" vertex="1">
          <mxGeometry x="60" y="50" width="40" height="40" as="geometry" />
        </mxCell>
        <mxCell id="lEX6nHBeAUjkaPzAe-QE-90" value="&lt;font color=&quot;#9999ff&quot;&gt;2&lt;/font&gt;" style="text;html=1;strokeColor=none;fillColor=none;align=center;verticalAlign=middle;whiteSpace=wrap;rounded=0;" parent="lEX6nHBeAUjkaPzAe-QE-86" vertex="1">
          <mxGeometry x="96" y="5" width="45" height="15" as="geometry" />
        </mxCell>
        <mxCell id="lEX6nHBeAUjkaPzAe-QE-91" value="Private subnet" style="points=[[0,0],[0.25,0],[0.5,0],[0.75,0],[1,0],[1,0.25],[1,0.5],[1,0.75],[1,1],[0.75,1],[0.5,1],[0.25,1],[0,1],[0,0.75],[0,0.5],[0,0.25]];outlineConnect=0;gradientColor=none;html=1;whiteSpace=wrap;fontSize=12;fontStyle=0;container=1;pointerEvents=0;collapsible=0;recursiveResize=0;shape=mxgraph.aws4.group;grIcon=mxgraph.aws4.group_security_group;grStroke=0;strokeColor=#147EBA;fillColor=#E6F2F8;verticalAlign=top;align=left;spacingLeft=30;fontColor=#147EBA;dashed=0;" parent="lEX6nHBeAUjkaPzAe-QE-6" vertex="1">
          <mxGeometry x="440" y="400" width="170" height="130" as="geometry" />
        </mxCell>
        <mxCell id="lEX6nHBeAUjkaPzAe-QE-92" value="10.1.5.0/24" style="text;html=1;strokeColor=none;fillColor=none;align=center;verticalAlign=middle;whiteSpace=wrap;rounded=0;" parent="lEX6nHBeAUjkaPzAe-QE-91" vertex="1">
          <mxGeometry x="33" y="21" width="70" height="10" as="geometry" />
        </mxCell>
        <mxCell id="lEX6nHBeAUjkaPzAe-QE-93" value="" style="sketch=0;points=[[0,0,0],[0.25,0,0],[0.5,0,0],[0.75,0,0],[1,0,0],[0,1,0],[0.25,1,0],[0.5,1,0],[0.75,1,0],[1,1,0],[0,0.25,0],[0,0.5,0],[0,0.75,0],[1,0.25,0],[1,0.5,0],[1,0.75,0]];outlineConnect=0;fontColor=#232F3E;gradientColor=#4D72F3;gradientDirection=north;fillColor=#3334B9;strokeColor=#ffffff;dashed=0;verticalLabelPosition=bottom;verticalAlign=top;align=center;html=1;fontSize=12;fontStyle=0;aspect=fixed;shape=mxgraph.aws4.resourceIcon;resIcon=mxgraph.aws4.rds;" parent="lEX6nHBeAUjkaPzAe-QE-91" vertex="1">
          <mxGeometry y="40" width="40" height="40" as="geometry" />
        </mxCell>
        <mxCell id="lEX6nHBeAUjkaPzAe-QE-94" value="" style="sketch=0;points=[[0,0,0],[0.25,0,0],[0.5,0,0],[0.75,0,0],[1,0,0],[0,1,0],[0.25,1,0],[0.5,1,0],[0.75,1,0],[1,1,0],[0,0.25,0],[0,0.5,0],[0,0.75,0],[1,0.25,0],[1,0.5,0],[1,0.75,0]];outlineConnect=0;fontColor=#232F3E;gradientColor=#60A337;gradientDirection=north;fillColor=#277116;strokeColor=#ffffff;dashed=0;verticalLabelPosition=bottom;verticalAlign=top;align=center;html=1;fontSize=12;fontStyle=0;aspect=fixed;shape=mxgraph.aws4.resourceIcon;resIcon=mxgraph.aws4.elastic_file_system;" parent="lEX6nHBeAUjkaPzAe-QE-91" vertex="1">
          <mxGeometry x="130" y="40" width="40" height="40" as="geometry" />
        </mxCell>
        <mxCell id="lEX6nHBeAUjkaPzAe-QE-95" value="efs" style="text;html=1;strokeColor=none;fillColor=none;align=center;verticalAlign=middle;whiteSpace=wrap;rounded=0;" parent="lEX6nHBeAUjkaPzAe-QE-6" vertex="1">
          <mxGeometry x="560" y="480" width="60" height="30" as="geometry" />
        </mxCell>
        <mxCell id="lEX6nHBeAUjkaPzAe-QE-96" value="rds" style="text;html=1;strokeColor=none;fillColor=none;align=center;verticalAlign=middle;whiteSpace=wrap;rounded=0;" parent="lEX6nHBeAUjkaPzAe-QE-6" vertex="1">
          <mxGeometry x="420" y="480" width="60" height="30" as="geometry" />
        </mxCell>
        <mxCell id="lEX6nHBeAUjkaPzAe-QE-97" value="&lt;font color=&quot;#9999ff&quot;&gt;4&lt;/font&gt;" style="text;html=1;strokeColor=none;fillColor=none;align=center;verticalAlign=middle;whiteSpace=wrap;rounded=0;" parent="lEX6nHBeAUjkaPzAe-QE-6" vertex="1">
          <mxGeometry x="535" y="406" width="45" height="15" as="geometry" />
        </mxCell>
        <mxCell id="lEX6nHBeAUjkaPzAe-QE-98" value="&lt;font color=&quot;#187a18&quot;&gt;2&lt;/font&gt;" style="text;html=1;strokeColor=none;fillColor=none;align=center;verticalAlign=middle;whiteSpace=wrap;rounded=0;fontColor=#9999FF;" parent="lEX6nHBeAUjkaPzAe-QE-6" vertex="1">
          <mxGeometry x="546" y="85" width="19" height="16" as="geometry" />
        </mxCell>
        <mxCell id="lEX6nHBeAUjkaPzAe-QE-100" value="" style="sketch=0;points=[[0,0,0],[0.25,0,0],[0.5,0,0],[0.75,0,0],[1,0,0],[0,1,0],[0.25,1,0],[0.5,1,0],[0.75,1,0],[1,1,0],[0,0.25,0],[0,0.5,0],[0,0.75,0],[1,0.25,0],[1,0.5,0],[1,0.75,0]];outlineConnect=0;fontColor=#232F3E;gradientColor=#F78E04;gradientDirection=north;fillColor=#D05C17;strokeColor=#ffffff;dashed=0;verticalLabelPosition=bottom;verticalAlign=top;align=center;html=1;fontSize=12;fontStyle=0;aspect=fixed;shape=mxgraph.aws4.resourceIcon;resIcon=mxgraph.aws4.auto_scaling2;" parent="lEX6nHBeAUjkaPzAe-QE-6" vertex="1">
          <mxGeometry x="320" y="120" width="40" height="40" as="geometry" />
        </mxCell>
        <mxCell id="lEX6nHBeAUjkaPzAe-QE-102" value="&lt;font color=&quot;#000000&quot;&gt;ALB&lt;/font&gt;" style="text;html=1;strokeColor=none;fillColor=none;align=center;verticalAlign=middle;whiteSpace=wrap;rounded=0;fontColor=#187A18;" parent="lEX6nHBeAUjkaPzAe-QE-6" vertex="1">
          <mxGeometry x="310" y="250" width="60" height="30" as="geometry" />
        </mxCell>
        <mxCell id="lEX6nHBeAUjkaPzAe-QE-103" value="Auto scaling" style="text;html=1;strokeColor=none;fillColor=none;align=center;verticalAlign=middle;whiteSpace=wrap;rounded=0;fontColor=#000000;" parent="lEX6nHBeAUjkaPzAe-QE-6" vertex="1">
          <mxGeometry x="300" y="160" width="80" height="30" as="geometry" />
        </mxCell>
        <mxCell id="lEX6nHBeAUjkaPzAe-QE-106" value="" style="sketch=0;points=[[0,0,0],[0.25,0,0],[0.5,0,0],[0.75,0,0],[1,0,0],[0,1,0],[0.25,1,0],[0.5,1,0],[0.75,1,0],[1,1,0],[0,0.25,0],[0,0.5,0],[0,0.75,0],[1,0.25,0],[1,0.5,0],[1,0.75,0]];outlineConnect=0;fontColor=#232F3E;gradientColor=#F78E04;gradientDirection=north;fillColor=#D05C17;strokeColor=#ffffff;dashed=0;verticalLabelPosition=bottom;verticalAlign=top;align=center;html=1;fontSize=12;fontStyle=0;aspect=fixed;shape=mxgraph.aws4.resourceIcon;resIcon=mxgraph.aws4.elastic_load_balancing;" parent="lEX6nHBeAUjkaPzAe-QE-6" vertex="1">
          <mxGeometry x="320" y="208" width="42" height="42" as="geometry" />
        </mxCell>
        <mxCell id="lEX6nHBeAUjkaPzAe-QE-108" value="" style="sketch=0;points=[[0,0,0],[0.25,0,0],[0.5,0,0],[0.75,0,0],[1,0,0],[0,1,0],[0.25,1,0],[0.5,1,0],[0.75,1,0],[1,1,0],[0,0.25,0],[0,0.5,0],[0,0.75,0],[1,0.25,0],[1,0.5,0],[1,0.75,0]];outlineConnect=0;fontColor=#232F3E;gradientColor=#F78E04;gradientDirection=north;fillColor=#D05C17;strokeColor=#ffffff;dashed=0;verticalLabelPosition=bottom;verticalAlign=top;align=center;html=1;fontSize=12;fontStyle=0;aspect=fixed;shape=mxgraph.aws4.resourceIcon;resIcon=mxgraph.aws4.auto_scaling2;" parent="lEX6nHBeAUjkaPzAe-QE-6" vertex="1">
          <mxGeometry x="325" y="308" width="40" height="40" as="geometry" />
        </mxCell>
        <mxCell id="lEX6nHBeAUjkaPzAe-QE-109" value="Auto scaling" style="text;html=1;strokeColor=none;fillColor=none;align=center;verticalAlign=middle;whiteSpace=wrap;rounded=0;fontColor=#000000;" parent="lEX6nHBeAUjkaPzAe-QE-6" vertex="1">
          <mxGeometry x="305" y="343" width="80" height="30" as="geometry" />
        </mxCell>
        <mxCell id="lEX6nHBeAUjkaPzAe-QE-17" value="Public subnet" style="points=[[0,0],[0.25,0],[0.5,0],[0.75,0],[1,0],[1,0.25],[1,0.5],[1,0.75],[1,1],[0.75,1],[0.5,1],[0.25,1],[0,1],[0,0.75],[0,0.5],[0,0.25]];outlineConnect=0;gradientColor=none;html=1;whiteSpace=wrap;fontSize=12;fontStyle=0;container=1;pointerEvents=0;collapsible=0;recursiveResize=0;shape=mxgraph.aws4.group;grIcon=mxgraph.aws4.group_security_group;grStroke=0;strokeColor=#248814;fillColor=#E9F3E6;verticalAlign=top;align=left;spacingLeft=30;fontColor=#248814;dashed=0;" parent="lEX6nHBeAUjkaPzAe-QE-6" vertex="1">
          <mxGeometry x="80" y="80" width="170" height="120" as="geometry" />
        </mxCell>
        <mxCell id="lEX6nHBeAUjkaPzAe-QE-19" value="10.1.0.0/24" style="text;html=1;strokeColor=none;fillColor=none;align=center;verticalAlign=middle;whiteSpace=wrap;rounded=0;" parent="lEX6nHBeAUjkaPzAe-QE-17" vertex="1">
          <mxGeometry x="35" y="20" width="70" height="10" as="geometry" />
        </mxCell>
        <mxCell id="lEX6nHBeAUjkaPzAe-QE-30" value="" style="outlineConnect=0;dashed=0;verticalLabelPosition=bottom;verticalAlign=top;align=center;html=1;shape=mxgraph.aws3.instance;fillColor=#F58534;gradientColor=none;" parent="lEX6nHBeAUjkaPzAe-QE-17" vertex="1">
          <mxGeometry x="120" y="40" width="40" height="40" as="geometry" />
        </mxCell>
        <mxCell id="lEX6nHBeAUjkaPzAe-QE-32" value="" style="sketch=0;outlineConnect=0;fontColor=#232F3E;gradientColor=none;fillColor=#4D27AA;strokeColor=none;dashed=0;verticalLabelPosition=bottom;verticalAlign=top;align=center;html=1;fontSize=12;fontStyle=0;aspect=fixed;pointerEvents=1;shape=mxgraph.aws4.nat_gateway;" parent="lEX6nHBeAUjkaPzAe-QE-17" vertex="1">
          <mxGeometry y="40" width="40" height="40" as="geometry" />
        </mxCell>
        <mxCell id="lEX6nHBeAUjkaPzAe-QE-31" value="" style="outlineConnect=0;dashed=0;verticalLabelPosition=bottom;verticalAlign=top;align=center;html=1;shape=mxgraph.aws3.instance;fillColor=#F58534;gradientColor=none;" parent="lEX6nHBeAUjkaPzAe-QE-17" vertex="1">
          <mxGeometry x="60" y="40" width="40" height="40" as="geometry" />
        </mxCell>
        <mxCell id="lEX6nHBeAUjkaPzAe-QE-33" value="nginx" style="text;html=1;strokeColor=none;fillColor=none;align=center;verticalAlign=middle;whiteSpace=wrap;rounded=0;" parent="lEX6nHBeAUjkaPzAe-QE-17" vertex="1">
          <mxGeometry x="120" y="80" width="50" height="10" as="geometry" />
        </mxCell>
        <mxCell id="lEX6nHBeAUjkaPzAe-QE-34" value="bastion" style="text;html=1;strokeColor=none;fillColor=none;align=center;verticalAlign=middle;whiteSpace=wrap;rounded=0;" parent="lEX6nHBeAUjkaPzAe-QE-17" vertex="1">
          <mxGeometry x="55" y="80" width="50" height="10" as="geometry" />
        </mxCell>
        <mxCell id="lEX6nHBeAUjkaPzAe-QE-35" value="nat gateway" style="text;html=1;strokeColor=none;fillColor=none;align=center;verticalAlign=middle;whiteSpace=wrap;rounded=0;" parent="lEX6nHBeAUjkaPzAe-QE-17" vertex="1">
          <mxGeometry x="-5" y="90" width="50" height="10" as="geometry" />
        </mxCell>
        <mxCell id="lEX6nHBeAUjkaPzAe-QE-41" style="edgeStyle=orthogonalEdgeStyle;rounded=0;orthogonalLoop=1;jettySize=auto;html=1;exitX=0.5;exitY=1;exitDx=0;exitDy=0;entryX=0.5;entryY=0;entryDx=0;entryDy=0;" parent="lEX6nHBeAUjkaPzAe-QE-17" source="lEX6nHBeAUjkaPzAe-QE-19" target="lEX6nHBeAUjkaPzAe-QE-19" edge="1">
          <mxGeometry relative="1" as="geometry" />
        </mxCell>
        <mxCell id="lEX6nHBeAUjkaPzAe-QE-110" value="" style="rounded=1;whiteSpace=wrap;html=1;labelBackgroundColor=none;labelBorderColor=none;fillColor=#fff2cc;strokeColor=#d6b656;shadow=0;sketch=0;glass=0;opacity=50;gradientColor=none;dashed=1;" parent="lEX6nHBeAUjkaPzAe-QE-6" vertex="1">
          <mxGeometry x="130" y="110" width="420" height="70" as="geometry" />
        </mxCell>
        <mxCell id="lEX6nHBeAUjkaPzAe-QE-111" value="" style="rounded=1;whiteSpace=wrap;html=1;labelBackgroundColor=none;labelBorderColor=none;fillColor=#fff2cc;strokeColor=#d6b656;shadow=0;sketch=0;glass=0;opacity=50;dashed=1;" parent="lEX6nHBeAUjkaPzAe-QE-6" vertex="1">
          <mxGeometry x="130" y="293" width="420" height="70" as="geometry" />
        </mxCell>
        <mxCell id="lEX6nHBeAUjkaPzAe-QE-5" value="AWS Cloud" style="points=[[0,0],[0.25,0],[0.5,0],[0.75,0],[1,0],[1,0.25],[1,0.5],[1,0.75],[1,1],[0.75,1],[0.5,1],[0.25,1],[0,1],[0,0.75],[0,0.5],[0,0.25]];outlineConnect=0;gradientColor=none;html=1;whiteSpace=wrap;fontSize=12;fontStyle=0;container=1;pointerEvents=0;collapsible=0;recursiveResize=0;shape=mxgraph.aws4.group;grIcon=mxgraph.aws4.group_aws_cloud_alt;strokeColor=#232F3E;fillColor=none;verticalAlign=top;align=left;spacingLeft=30;fontColor=#232F3E;dashed=0;" parent="lEX6nHBeAUjkaPzAe-QE-6" vertex="1">
          <mxGeometry x="-30" y="-30" width="760" height="680" as="geometry" />
        </mxCell>
        <mxCell id="lEX6nHBeAUjkaPzAe-QE-107" value="&lt;font color=&quot;#000000&quot;&gt;ALB&lt;/font&gt;" style="text;html=1;strokeColor=none;fillColor=none;align=center;verticalAlign=middle;whiteSpace=wrap;rounded=0;fontColor=#187A18;" parent="lEX6nHBeAUjkaPzAe-QE-5" vertex="1">
          <mxGeometry x="350" y="90" width="40" height="20" as="geometry" />
        </mxCell>
        <mxCell id="lEX6nHBeAUjkaPzAe-QE-101" value="" style="sketch=0;points=[[0,0,0],[0.25,0,0],[0.5,0,0],[0.75,0,0],[1,0,0],[0,1,0],[0.25,1,0],[0.5,1,0],[0.75,1,0],[1,1,0],[0,0.25,0],[0,0.5,0],[0,0.75,0],[1,0.25,0],[1,0.5,0],[1,0.75,0]];outlineConnect=0;fontColor=#232F3E;gradientColor=#F78E04;gradientDirection=north;fillColor=#D05C17;strokeColor=#ffffff;dashed=0;verticalLabelPosition=bottom;verticalAlign=top;align=center;html=1;fontSize=12;fontStyle=0;aspect=fixed;shape=mxgraph.aws4.resourceIcon;resIcon=mxgraph.aws4.elastic_load_balancing;" parent="lEX6nHBeAUjkaPzAe-QE-5" vertex="1">
          <mxGeometry x="350" y="50" width="40" height="40" as="geometry" />
        </mxCell>
        <mxCell id="TbAhXhf0s-d5DW_20HQ5-2" value="" style="sketch=0;outlineConnect=0;fontColor=#232F3E;gradientColor=none;fillColor=#8C4FFF;strokeColor=none;dashed=0;verticalLabelPosition=bottom;verticalAlign=top;align=center;html=1;fontSize=12;fontStyle=0;aspect=fixed;pointerEvents=1;shape=mxgraph.aws4.internet_gateway;" parent="lEX6nHBeAUjkaPzAe-QE-5" vertex="1">
          <mxGeometry x="355" y="10" width="30" height="30" as="geometry" />
        </mxCell>
        <mxCell id="iitigB6A-X2l15xuLJL5-2" value="Internet Gatway" style="text;html=1;align=center;verticalAlign=middle;whiteSpace=wrap;rounded=0;" vertex="1" parent="lEX6nHBeAUjkaPzAe-QE-5">
          <mxGeometry x="390" y="10" width="90" height="30" as="geometry" />
        </mxCell>
        <mxCell id="iitigB6A-X2l15xuLJL5-9" value="" style="endArrow=classic;startArrow=classic;html=1;rounded=0;entryX=0;entryY=1;entryDx=0;entryDy=0;entryPerimeter=0;exitX=0.062;exitY=0.021;exitDx=0;exitDy=0;exitPerimeter=0;" edge="1" parent="lEX6nHBeAUjkaPzAe-QE-5" source="lEX6nHBeAUjkaPzAe-QE-111">
          <mxGeometry width="50" height="50" relative="1" as="geometry">
            <mxPoint x="240" y="322" as="sourcePoint" />
            <mxPoint x="351" y="270" as="targetPoint" />
            <Array as="points">
              <mxPoint x="186" y="270" />
            </Array>
          </mxGeometry>
        </mxCell>
        <mxCell id="iitigB6A-X2l15xuLJL5-10" value="" style="endArrow=classic;startArrow=classic;html=1;rounded=0;exitX=0.25;exitY=0.769;exitDx=0;exitDy=0;exitPerimeter=0;" edge="1" parent="lEX6nHBeAUjkaPzAe-QE-5" source="lEX6nHBeAUjkaPzAe-QE-9">
          <mxGeometry width="50" height="50" relative="1" as="geometry">
            <mxPoint x="140" y="440" as="sourcePoint" />
            <mxPoint x="190" y="390" as="targetPoint" />
            <Array as="points">
              <mxPoint x="190" y="430" />
            </Array>
          </mxGeometry>
        </mxCell>
        <mxCell id="iitigB6A-X2l15xuLJL5-14" value="" style="endArrow=classic;html=1;rounded=0;exitX=0.5;exitY=0;exitDx=0;exitDy=0;exitPerimeter=0;" edge="1" parent="lEX6nHBeAUjkaPzAe-QE-5" source="lEX6nHBeAUjkaPzAe-QE-101" target="TbAhXhf0s-d5DW_20HQ5-2">
          <mxGeometry width="50" height="50" relative="1" as="geometry">
            <mxPoint x="350" y="60" as="sourcePoint" />
            <mxPoint x="400" y="10" as="targetPoint" />
          </mxGeometry>
        </mxCell>
        <mxCell id="iitigB6A-X2l15xuLJL5-8" value="" style="endArrow=classic;startArrow=classic;html=1;rounded=0;entryX=0;entryY=0.25;entryDx=0;entryDy=0;entryPerimeter=0;exitX=0.215;exitY=1.029;exitDx=0;exitDy=0;exitPerimeter=0;" edge="1" parent="lEX6nHBeAUjkaPzAe-QE-6" source="lEX6nHBeAUjkaPzAe-QE-110" target="lEX6nHBeAUjkaPzAe-QE-106">
          <mxGeometry width="50" height="50" relative="1" as="geometry">
            <mxPoint x="230" y="260" as="sourcePoint" />
            <mxPoint x="280" y="210" as="targetPoint" />
            <Array as="points">
              <mxPoint x="220" y="220" />
            </Array>
          </mxGeometry>
        </mxCell>
        <mxCell id="iitigB6A-X2l15xuLJL5-7" value="" style="endArrow=classic;startArrow=classic;html=1;rounded=0;entryX=0;entryY=0.75;entryDx=0;entryDy=0;entryPerimeter=0;" edge="1" parent="lEX6nHBeAUjkaPzAe-QE-6" target="lEX6nHBeAUjkaPzAe-QE-101">
          <mxGeometry width="50" height="50" relative="1" as="geometry">
            <mxPoint x="220" y="110" as="sourcePoint" />
            <mxPoint x="330" y="60" as="targetPoint" />
            <Array as="points">
              <mxPoint x="220" y="50" />
            </Array>
          </mxGeometry>
        </mxCell>
        <mxCell id="iitigB6A-X2l15xuLJL5-15" value="Nginx target Group" style="text;html=1;align=center;verticalAlign=middle;whiteSpace=wrap;rounded=0;" vertex="1" parent="lEX6nHBeAUjkaPzAe-QE-6">
          <mxGeometry x="186" y="110" width="110" height="30" as="geometry" />
        </mxCell>
        <mxCell id="iitigB6A-X2l15xuLJL5-16" value="webserver target Group" style="text;html=1;align=center;verticalAlign=middle;whiteSpace=wrap;rounded=0;" vertex="1" parent="lEX6nHBeAUjkaPzAe-QE-6">
          <mxGeometry x="150" y="295" width="110" height="30" as="geometry" />
        </mxCell>
        <mxCell id="iitigB6A-X2l15xuLJL5-17" value="" style="endArrow=classic;startArrow=classic;html=1;rounded=0;entryX=0.773;entryY=-0.007;entryDx=0;entryDy=0;entryPerimeter=0;exitX=1;exitY=0.75;exitDx=0;exitDy=0;exitPerimeter=0;" edge="1" parent="lEX6nHBeAUjkaPzAe-QE-6" source="lEX6nHBeAUjkaPzAe-QE-101" target="lEX6nHBeAUjkaPzAe-QE-110">
          <mxGeometry width="50" height="50" relative="1" as="geometry">
            <mxPoint x="390" y="110" as="sourcePoint" />
            <mxPoint x="490" y="50" as="targetPoint" />
            <Array as="points">
              <mxPoint x="455" y="50" />
            </Array>
          </mxGeometry>
        </mxCell>
        <mxCell id="iitigB6A-X2l15xuLJL5-19" value="" style="endArrow=classic;startArrow=classic;html=1;rounded=0;entryX=0.292;entryY=0.269;entryDx=0;entryDy=0;entryPerimeter=0;exitX=1;exitY=0.25;exitDx=0;exitDy=0;exitPerimeter=0;" edge="1" parent="lEX6nHBeAUjkaPzAe-QE-6" source="lEX6nHBeAUjkaPzAe-QE-106" target="lEX6nHBeAUjkaPzAe-QE-75">
          <mxGeometry width="50" height="50" relative="1" as="geometry">
            <mxPoint x="430" y="190" as="sourcePoint" />
            <mxPoint x="530" y="227" as="targetPoint" />
            <Array as="points">
              <mxPoint x="470" y="219" />
            </Array>
          </mxGeometry>
        </mxCell>
        <mxCell id="iitigB6A-X2l15xuLJL5-20" value="" style="endArrow=classic;startArrow=classic;html=1;rounded=0;exitX=1;exitY=0.75;exitDx=0;exitDy=0;exitPerimeter=0;" edge="1" parent="lEX6nHBeAUjkaPzAe-QE-6" source="lEX6nHBeAUjkaPzAe-QE-106">
          <mxGeometry width="50" height="50" relative="1" as="geometry">
            <mxPoint x="340" y="420" as="sourcePoint" />
            <mxPoint x="520" y="300" as="targetPoint" />
            <Array as="points">
              <mxPoint x="520" y="239" />
            </Array>
          </mxGeometry>
        </mxCell>
        <mxCell id="iitigB6A-X2l15xuLJL5-21" value="" style="endArrow=classic;startArrow=classic;html=1;rounded=0;entryX=0.933;entryY=0.998;entryDx=0;entryDy=0;entryPerimeter=0;exitX=0.5;exitY=0;exitDx=0;exitDy=0;exitPerimeter=0;" edge="1" parent="lEX6nHBeAUjkaPzAe-QE-6" source="lEX6nHBeAUjkaPzAe-QE-93" target="lEX6nHBeAUjkaPzAe-QE-111">
          <mxGeometry width="50" height="50" relative="1" as="geometry">
            <mxPoint x="350" y="440" as="sourcePoint" />
            <mxPoint x="515" y="386" as="targetPoint" />
            <Array as="points">
              <mxPoint x="522" y="400" />
            </Array>
          </mxGeometry>
        </mxCell>
        <mxCell id="lEX6nHBeAUjkaPzAe-QE-112" value="" style="sketch=0;outlineConnect=0;fontColor=#232F3E;gradientColor=none;fillColor=#232F3D;strokeColor=none;dashed=0;verticalLabelPosition=bottom;verticalAlign=top;align=center;html=1;fontSize=12;fontStyle=0;aspect=fixed;pointerEvents=1;shape=mxgraph.aws4.users;rounded=1;shadow=0;glass=0;labelBackgroundColor=none;labelBorderColor=none;opacity=50;" parent="1" vertex="1">
          <mxGeometry x="400" width="40" height="40" as="geometry" />
        </mxCell>
        <mxCell id="lEX6nHBeAUjkaPzAe-QE-113" value="" style="sketch=0;points=[[0,0,0],[0.25,0,0],[0.5,0,0],[0.75,0,0],[1,0,0],[0,1,0],[0.25,1,0],[0.5,1,0],[0.75,1,0],[1,1,0],[0,0.25,0],[0,0.5,0],[0,0.75,0],[1,0.25,0],[1,0.5,0],[1,0.75,0]];outlineConnect=0;fontColor=#232F3E;gradientColor=#945DF2;gradientDirection=north;fillColor=#5A30B5;strokeColor=#ffffff;dashed=0;verticalLabelPosition=bottom;verticalAlign=top;align=center;html=1;fontSize=12;fontStyle=0;aspect=fixed;shape=mxgraph.aws4.resourceIcon;resIcon=mxgraph.aws4.route_53;rounded=1;shadow=0;glass=0;labelBackgroundColor=none;labelBorderColor=none;opacity=50;" parent="1" vertex="1">
          <mxGeometry x="400" y="80" width="40" height="40" as="geometry" />
        </mxCell>
        <mxCell id="TbAhXhf0s-d5DW_20HQ5-4" value="" style="endArrow=classic;startArrow=classic;html=1;rounded=0;entryX=0.5;entryY=1;entryDx=0;entryDy=0;entryPerimeter=0;" parent="1" target="lEX6nHBeAUjkaPzAe-QE-113" edge="1">
          <mxGeometry width="50" height="50" relative="1" as="geometry">
            <mxPoint x="420" y="170" as="sourcePoint" />
            <mxPoint x="450" y="90" as="targetPoint" />
          </mxGeometry>
        </mxCell>
        <mxCell id="TbAhXhf0s-d5DW_20HQ5-5" value="" style="endArrow=classic;startArrow=classic;html=1;rounded=0;exitX=0.5;exitY=0;exitDx=0;exitDy=0;exitPerimeter=0;" parent="1" source="lEX6nHBeAUjkaPzAe-QE-113" edge="1">
          <mxGeometry width="50" height="50" relative="1" as="geometry">
            <mxPoint x="400" y="140" as="sourcePoint" />
            <mxPoint x="420" y="40" as="targetPoint" />
          </mxGeometry>
        </mxCell>
        <mxCell id="iitigB6A-X2l15xuLJL5-3" style="edgeStyle=orthogonalEdgeStyle;rounded=0;orthogonalLoop=1;jettySize=auto;html=1;exitX=1;exitY=0.5;exitDx=0;exitDy=0;" edge="1" parent="1" source="iitigB6A-X2l15xuLJL5-1">
          <mxGeometry relative="1" as="geometry">
            <mxPoint x="570" y="100" as="targetPoint" />
          </mxGeometry>
        </mxCell>
        <mxCell id="iitigB6A-X2l15xuLJL5-1" value="Route53 DNS (www.digitalboost.com)" style="text;html=1;align=center;verticalAlign=middle;whiteSpace=wrap;rounded=0;" vertex="1" parent="1">
          <mxGeometry x="440" y="85" width="130" height="30" as="geometry" />
        </mxCell>
        <mxCell id="iitigB6A-X2l15xuLJL5-12" value="" style="endArrow=classic;html=1;rounded=0;entryX=0.25;entryY=0;entryDx=0;entryDy=0;entryPerimeter=0;" edge="1" parent="1" target="lEX6nHBeAUjkaPzAe-QE-42">
          <mxGeometry width="50" height="50" relative="1" as="geometry">
            <mxPoint x="240" y="590" as="sourcePoint" />
            <mxPoint x="450" y="580" as="targetPoint" />
          </mxGeometry>
        </mxCell>
        <mxCell id="iitigB6A-X2l15xuLJL5-22" value="" style="endArrow=classic;html=1;rounded=0;entryX=0.5;entryY=0;entryDx=0;entryDy=0;entryPerimeter=0;" edge="1" parent="1" target="lEX6nHBeAUjkaPzAe-QE-94">
          <mxGeometry width="50" height="50" relative="1" as="geometry">
            <mxPoint x="600" y="590" as="sourcePoint" />
            <mxPoint x="440" y="500" as="targetPoint" />
          </mxGeometry>
        </mxCell>
      </root>
    </mxGraphModel>
  </diagram>
</mxfile>
